<svg id="JMerise" width="316" height="272" viewBox="0 0 316 272" fill="none" xmlns="http://www.w3.org/2000/svg">
<path fill-rule="evenodd" clip-rule="evenodd" d="M104.049 23.7087L47.9801 33.0865C47.3658 33.4372 46.6369 33.5655 45.9275 33.4299L35.7938 35.1248C36.7426 36.0267 37.0196 37.4815 36.3794 38.6968C35.6071 40.1627 33.7928 40.725 32.3269 39.9528L32.2409 39.9075C30.8019 39.1494 30.2336 37.3871 30.9438 35.936L13 38.9372L21.912 92.2206C21.9367 92.2328 21.9613 92.2454 21.9859 92.2583L22.1579 92.349C23.6238 93.1212 24.1861 94.9355 23.4139 96.4014C23.2407 96.7302 23.015 97.0136 22.7526 97.2466L24.826 109.643C25.7322 108.758 27.1395 108.514 28.3205 109.136L28.4926 109.227C29.9585 109.999 30.5208 111.814 29.7485 113.28C28.9763 114.745 27.1619 115.308 25.696 114.536L25.6393 114.506L36.4487 179.134C37.1399 179.955 37.3547 181.11 36.9528 182.147L39.1197 195.103C39.9255 194.753 40.8769 194.759 41.7146 195.2L41.8867 195.291C43.3526 196.063 43.9149 197.878 43.1426 199.343C42.5401 200.487 41.3033 201.081 40.0925 200.92L51.9372 271.737L55.3119 271.173C54.7247 270.288 54.6265 269.119 55.1562 268.113C55.9285 266.647 57.7428 266.085 59.2087 266.857L59.3808 266.948C60.5995 267.59 61.1936 268.952 60.9156 270.236L92.3016 264.986C92.3554 264.696 92.4533 264.408 92.5982 264.133C93.3705 262.667 95.1848 262.105 96.6507 262.877L96.8228 262.968C97.312 263.226 97.7006 263.599 97.9725 264.038L165.032 252.821C164.581 251.974 164.543 250.925 165.025 250.011C165.797 248.545 167.611 247.983 169.077 248.755L169.249 248.846C170.379 249.441 170.972 250.655 170.831 251.851L224.612 242.856C224.635 242.806 224.66 242.755 224.686 242.706C225.459 241.24 227.273 240.677 228.739 241.45L228.911 241.54C229.163 241.673 229.389 241.837 229.585 242.025L239.658 240.34C239.145 239.473 239.08 238.367 239.585 237.41C240.357 235.944 242.171 235.382 243.637 236.154L243.809 236.245C244.981 236.862 245.575 238.145 245.372 239.384L284.737 232.8L283.166 223.408C282.958 223.351 282.753 223.271 282.555 223.166L282.383 223.076C280.917 222.304 280.354 220.489 281.127 219.023C281.392 218.519 281.781 218.122 282.237 217.849L280.398 206.855C280.371 206.915 280.343 206.974 280.312 207.032C279.54 208.498 277.725 209.06 276.259 208.288L276.087 208.197C274.622 207.425 274.059 205.611 274.831 204.145C275.604 202.679 277.418 202.117 278.884 202.889L279.056 202.979C279.362 203.14 279.628 203.347 279.851 203.586L268.778 137.384C268.351 136.709 268.203 135.877 268.393 135.081L266.46 123.525C265.932 123.557 265.388 123.449 264.885 123.184L264.713 123.094C263.247 122.321 262.684 120.507 263.457 119.041C263.883 118.232 264.627 117.698 265.455 117.512L252.545 40.3296L252.528 40.3622C251.756 41.8281 249.942 42.3904 248.476 41.6181L248.304 41.5275C246.838 40.7552 246.276 38.9409 247.048 37.475C247.82 36.0091 249.635 35.4468 251.1 36.2191L251.273 36.3097C251.528 36.4445 251.757 36.6111 251.955 36.8021L245.8 0L195.552 8.40424C195.627 8.99365 195.528 9.61104 195.23 10.1766C194.457 11.6425 192.643 12.2048 191.177 11.4325L191.005 11.3419C190.22 10.9282 189.694 10.2155 189.493 9.4176L184.438 10.2631C184.832 11.0886 184.844 12.0829 184.385 12.9541C183.613 14.42 181.799 14.9823 180.333 14.2101L180.161 14.1194C179.072 13.5461 178.482 12.3983 178.566 11.2452L123.581 20.4418C122.945 20.8186 122.18 20.9537 121.44 20.7999L110.116 22.694C110.212 23.3099 110.119 23.9612 109.806 24.5552C109.033 26.0211 107.219 26.5834 105.753 25.8112L105.581 25.7205C104.767 25.2918 104.232 24.5419 104.049 23.7087ZM127.477 30.474C126.011 29.7017 124.197 30.264 123.425 31.7299C122.653 33.1958 123.215 35.0102 124.681 35.7824L124.853 35.873C126.319 36.6453 128.133 36.083 128.905 34.6171C129.678 33.1512 129.115 31.3369 127.649 30.5646L127.477 30.474ZM146.577 40.5358C145.111 39.7636 143.297 40.3259 142.524 41.7918C141.752 43.2577 142.314 45.072 143.78 45.8443L143.952 45.9349C145.418 46.7072 147.233 46.1449 148.005 44.679C148.777 43.2131 148.215 41.3987 146.749 40.6265L146.577 40.5358ZM165.676 50.5977C164.211 49.8255 162.396 50.3878 161.624 51.8537C160.852 53.3195 161.414 55.1339 162.88 55.9062L163.052 55.9968C164.518 56.769 166.332 56.2067 167.105 54.7409C167.877 53.275 167.314 51.4606 165.849 50.6884L165.676 50.5977ZM184.776 60.6596C183.31 59.8874 181.496 60.4497 180.724 61.9155C179.951 63.3814 180.514 65.1958 181.98 65.968L182.152 66.0587C183.618 66.8309 185.432 66.2686 186.204 64.8027C186.976 63.3368 186.414 61.5225 184.948 60.7502L184.776 60.6596ZM203.876 70.7215C202.41 69.9492 200.595 70.5115 199.823 71.9774C199.051 73.4433 199.613 75.2577 201.079 76.0299L201.251 76.1206C202.717 76.8928 204.531 76.3305 205.304 74.8646C206.076 73.3987 205.514 71.5844 204.048 70.8121L203.876 70.7215ZM222.975 80.7833C221.509 80.0111 219.695 80.5734 218.923 82.0393C218.151 83.5052 218.713 85.3195 220.179 86.0918L220.351 86.1824C221.817 86.9547 223.631 86.3924 224.403 84.9265C225.176 83.4606 224.613 81.6462 223.147 80.874L222.975 80.7833ZM242.075 90.8452C240.609 90.073 238.795 90.6353 238.022 92.1012C237.25 93.567 237.812 95.3814 239.278 96.1537L239.45 96.2443C240.916 97.0166 242.731 96.4542 243.503 94.9884C244.275 93.5225 243.713 91.7081 242.247 90.9359L242.075 90.8452ZM261.175 100.907C259.709 100.135 257.894 100.697 257.122 102.163C256.35 103.629 256.912 105.443 258.378 106.216L258.55 106.306C260.016 107.078 261.83 106.516 262.603 105.05C263.375 103.584 262.812 101.77 261.347 100.998L261.175 100.907ZM138.323 26.4346C139.095 24.9687 140.91 24.4064 142.376 25.1786L142.548 25.2693C144.014 26.0415 144.576 27.8559 143.804 29.3218C143.031 30.7876 141.217 31.3499 139.751 30.5777L139.579 30.4871C138.113 29.7148 137.551 27.9005 138.323 26.4346ZM157.423 36.4965C158.195 35.0306 160.009 34.4683 161.475 35.2405L161.647 35.3312C163.113 36.1034 163.675 37.9178 162.903 39.3836C162.131 40.8495 160.317 41.4118 158.851 40.6396L158.679 40.5489C157.213 39.7767 156.65 37.9623 157.423 36.4965ZM176.522 46.5583C177.295 45.0925 179.109 44.5301 180.575 45.3024L180.747 45.393C182.213 46.1653 182.775 47.9796 182.003 49.4455C181.231 50.9114 179.416 51.4737 177.95 50.7015L177.778 50.6108C176.312 49.8386 175.75 48.0242 176.522 46.5583ZM195.622 56.6202C196.394 55.1543 198.209 54.592 199.674 55.3643L199.846 55.4549C201.312 56.2271 201.875 58.0415 201.102 59.5074C200.33 60.9733 198.516 61.5356 197.05 60.7633L196.878 60.6727C195.412 59.9005 194.85 58.0861 195.622 56.6202ZM214.722 66.6821C215.494 65.2162 217.308 64.6539 218.774 65.4261L218.946 65.5168C220.412 66.289 220.974 68.1034 220.202 69.5693C219.43 71.0352 217.615 71.5975 216.15 70.8252L215.977 70.7346C214.512 69.9623 213.949 68.148 214.722 66.6821ZM233.821 76.744C234.593 75.2781 236.408 74.7158 237.874 75.488L238.046 75.5787C239.512 76.3509 240.074 78.1653 239.302 79.6311C238.529 81.097 236.715 81.6593 235.249 80.8871L235.077 80.7964C233.611 80.0242 233.049 78.2098 233.821 76.744ZM252.921 86.8058C253.693 85.34 255.507 84.7776 256.973 85.5499L257.145 85.6405C258.611 86.4128 259.173 88.2271 258.401 89.693C257.629 91.1589 255.815 91.7212 254.349 90.949L254.177 90.8583C252.711 90.0861 252.148 88.2717 252.921 86.8058ZM155.294 20.9226C153.828 20.1504 152.014 20.7127 151.242 22.1786C150.469 23.6444 151.032 25.4588 152.497 26.231L152.67 26.3217C154.135 27.0939 155.95 26.5316 156.722 25.0657C157.494 23.5999 156.932 21.7855 155.466 21.0133L155.294 20.9226ZM174.394 30.9845C172.928 30.2122 171.113 30.7746 170.341 32.2404C169.569 33.7063 170.131 35.5207 171.597 36.2929L171.769 36.3836C173.235 37.1558 175.049 36.5935 175.822 35.1276C176.594 33.6617 176.032 31.8474 174.566 31.0751L174.394 30.9845ZM193.493 41.0464C192.027 40.2741 190.213 40.8364 189.441 42.3023C188.669 43.7682 189.231 45.5826 190.697 46.3548L190.869 46.4454C192.335 47.2177 194.149 46.6554 194.921 45.1895C195.694 43.7236 195.131 41.9093 193.665 41.137L193.493 41.0464ZM212.593 51.1082C211.127 50.336 209.313 50.8983 208.54 52.3642C207.768 53.8301 208.33 55.6444 209.796 56.4167L209.968 56.5073C211.434 57.2796 213.249 56.7172 214.021 55.2514C214.793 53.7855 214.231 51.9711 212.765 51.1989L212.593 51.1082ZM231.692 61.1701C230.227 60.3979 228.412 60.9602 227.64 62.4261C226.868 63.8919 227.43 65.7063 228.896 66.4785L229.068 66.5692C230.534 67.3414 232.348 66.7791 233.12 65.3132C233.893 63.8474 233.33 62.033 231.865 61.2608L231.692 61.1701ZM250.792 71.232C249.326 70.4597 247.512 71.022 246.74 72.4879C245.967 73.9538 246.53 75.7682 247.996 76.5404L248.168 76.6311C249.633 77.4033 251.448 76.841 252.22 75.3751C252.992 73.9092 252.43 72.0949 250.964 71.3226L250.792 71.232ZM164.007 15.3623C164.779 13.8964 166.593 13.3341 168.059 14.1063L168.231 14.197C169.697 14.9692 170.259 16.7836 169.487 18.2495C168.715 19.7153 166.9 20.2776 165.435 19.5054L165.262 19.4147C163.797 18.6425 163.234 16.8282 164.007 15.3623ZM183.106 25.4241C183.878 23.9583 185.693 23.396 187.159 24.1682L187.331 24.2589C188.797 25.0311 189.359 26.8455 188.587 28.3113C187.814 29.7772 186 30.3395 184.534 29.5673L184.362 29.4766C182.896 28.7044 182.334 26.89 183.106 25.4241ZM202.206 35.486C202.978 34.0201 204.792 33.4578 206.258 34.2301L206.43 34.3207C207.896 35.093 208.458 36.9073 207.686 38.3732C206.914 39.8391 205.1 40.4014 203.634 39.6292L203.462 39.5385C201.996 38.7663 201.433 36.9519 202.206 35.486ZM221.305 45.5479C222.078 44.082 223.892 43.5197 225.358 44.292L225.53 44.3826C226.996 45.1548 227.558 46.9692 226.786 48.4351C226.014 49.901 224.199 50.4633 222.733 49.691L222.561 49.6004C221.095 48.8281 220.533 47.0138 221.305 45.5479ZM240.405 55.6098C241.177 54.1439 242.992 53.5816 244.457 54.3538L244.629 54.4445C246.095 55.2167 246.658 57.0311 245.885 58.497C245.113 59.9628 243.299 60.5251 241.833 59.7529L241.661 59.6622C240.195 58.89 239.633 57.0757 240.405 55.6098ZM202.057 18.8729C200.591 18.1006 198.777 18.6629 198.004 20.1288C197.232 21.5947 197.794 23.409 199.26 24.1813L199.432 24.2719C200.898 25.0442 202.713 24.4819 203.485 23.016C204.257 21.5501 203.695 19.7357 202.229 18.9635L202.057 18.8729ZM221.156 28.9347C219.691 28.1625 217.876 28.7248 217.104 30.1907C216.332 31.6566 216.894 33.4709 218.36 34.2432L218.532 34.3338C219.998 35.1061 221.812 34.5437 222.585 33.0779C223.357 31.612 222.794 29.7976 221.329 29.0254L221.156 28.9347ZM240.256 38.9966C238.79 38.2244 236.976 38.7867 236.204 40.2526C235.431 41.7184 235.994 43.5328 237.46 44.305L237.632 44.3957C239.098 45.1679 240.912 44.6056 241.684 43.1398C242.456 41.6739 241.894 39.8595 240.428 39.0873L240.256 38.9966ZM208.849 17.3513C209.621 15.8854 211.435 15.3231 212.901 16.0953L213.073 16.186C214.539 16.9582 215.102 18.7726 214.329 20.2384C213.557 21.7043 211.743 22.2666 210.277 21.4944L210.105 21.4037C208.639 20.6315 208.077 18.8171 208.849 17.3513ZM227.948 27.4131C228.721 25.9473 230.535 25.3849 232.001 26.1572L232.173 26.2478C233.639 27.0201 234.201 28.8344 233.429 30.3003C232.657 31.7662 230.842 32.3285 229.376 31.5563L229.204 31.4656C227.738 30.6934 227.176 28.879 227.948 27.4131ZM225.666 9.27904C224.2 8.50679 222.386 9.06911 221.614 10.535C220.841 12.0009 221.404 13.8152 222.87 14.5875L223.042 14.6781C224.508 15.4504 226.322 14.888 227.094 13.4222C227.866 11.9563 227.304 10.1419 225.838 9.36969L225.666 9.27904ZM244.766 19.3409C243.3 18.5687 241.486 19.131 240.713 20.5968C239.941 22.0627 240.503 23.8771 241.969 24.6493L242.141 24.74C243.607 25.5122 245.422 24.9499 246.194 23.484C246.966 22.0182 246.404 20.2038 244.938 19.4315L244.766 19.3409ZM240.565 3.9837C239.099 3.21146 237.284 3.77376 236.512 5.23964C235.74 6.70552 236.302 8.51988 237.768 9.29213L237.94 9.38277C239.406 10.155 241.22 9.59271 241.993 8.12683C242.765 6.66095 242.202 4.84659 240.737 4.07434L240.565 3.9837ZM91.5602 28.4843C92.3325 27.0184 94.1469 26.4561 95.6127 27.2284L95.7848 27.319C97.2507 28.0913 97.813 29.9056 97.0407 31.3715C96.2685 32.8374 94.4541 33.3997 92.9883 32.6275L92.8162 32.5368C91.3503 31.7646 90.788 29.9502 91.5602 28.4843ZM110.66 38.5462C111.432 37.0803 113.246 36.518 114.712 37.2903L114.884 37.3809C116.35 38.1531 116.913 39.9675 116.14 41.4334C115.368 42.8993 113.554 43.4616 112.088 42.6893L111.916 42.5987C110.45 41.8264 109.888 40.0121 110.66 38.5462ZM129.759 48.6081C130.532 47.1422 132.346 46.5799 133.812 47.3521L133.984 47.4428C135.45 48.215 136.012 50.0294 135.24 51.4953C134.468 52.9611 132.653 53.5235 131.187 52.7512L131.015 52.6606C129.549 51.8883 128.987 50.074 129.759 48.6081ZM148.859 58.67C149.631 57.2041 151.446 56.6418 152.912 57.414L153.084 57.5047C154.549 58.2769 155.112 60.0912 154.34 61.5571C153.567 63.023 151.753 63.5853 150.287 62.8131L150.115 62.7224C148.649 61.9502 148.087 60.1358 148.859 58.67ZM167.959 68.7318C168.731 67.2659 170.545 66.7036 172.011 67.4759L172.183 67.5665C173.649 68.3388 174.211 70.1531 173.439 71.619C172.667 73.0849 170.853 73.6472 169.387 72.875L169.215 72.7843C167.749 72.0121 167.186 70.1977 167.959 68.7318ZM187.058 78.7937C187.831 77.3278 189.645 76.7655 191.111 77.5378L191.283 77.6284C192.749 78.4007 193.311 80.215 192.539 81.6809C191.767 83.1468 189.952 83.7091 188.486 82.9368L188.314 82.8462C186.848 82.0739 186.286 80.2596 187.058 78.7937ZM206.158 88.8556C206.93 87.3897 208.744 86.8274 210.21 87.5996L210.382 87.6903C211.848 88.4625 212.411 90.2769 211.638 91.7428C210.866 93.2086 209.052 93.771 207.586 92.9987L207.414 92.9081C205.948 92.1358 205.386 90.3215 206.158 88.8556ZM225.257 98.9174C226.03 97.4516 227.844 96.8893 229.31 97.6615L229.482 97.7522C230.948 98.5244 231.51 100.339 230.738 101.805C229.966 103.271 228.151 103.833 226.685 103.061L226.513 102.97C225.048 102.198 224.485 100.383 225.257 98.9174ZM244.357 108.979C245.129 107.513 246.944 106.951 248.41 107.723L248.582 107.814C250.048 108.586 250.61 110.401 249.838 111.867C249.065 113.332 247.251 113.895 245.785 113.122L245.613 113.032C244.147 112.26 243.585 110.445 244.357 108.979ZM81.7142 32.504C80.2483 31.7317 78.434 32.294 77.6617 33.7599C76.8895 35.2258 77.4518 37.0401 78.9177 37.8124L79.0898 37.903C80.5556 38.6753 82.37 38.113 83.1422 36.6471C83.9145 35.1812 83.3522 33.3669 81.8863 32.5946L81.7142 32.504ZM100.814 42.5658C99.348 41.7936 97.5336 42.3559 96.7614 43.8218C95.9891 45.2877 96.5514 47.102 98.0173 47.8743L98.1894 47.9649C99.6552 48.7372 101.47 48.1749 102.242 46.709C103.014 45.2431 102.452 43.4287 100.986 42.6565L100.814 42.5658ZM119.913 52.6277C118.448 51.8555 116.633 52.4178 115.861 53.8837C115.089 55.3495 115.651 57.1639 117.117 57.9361L117.289 58.0268C118.755 58.799 120.569 58.2367 121.341 56.7708C122.114 55.305 121.551 53.4906 120.086 52.7184L119.913 52.6277ZM139.013 62.6896C137.547 61.9173 135.733 62.4797 134.961 63.9455C134.188 65.4114 134.751 67.2258 136.217 67.998L136.389 68.0887C137.854 68.8609 139.669 68.2986 140.441 66.8327C141.213 65.3668 140.651 63.5525 139.185 62.7802L139.013 62.6896ZM158.113 72.7515C156.647 71.9792 154.832 72.5415 154.06 74.0074C153.288 75.4733 153.85 77.2876 155.316 78.0599L155.488 78.1505C156.954 78.9228 158.768 78.3605 159.541 76.8946C160.313 75.4287 159.751 73.6143 158.285 72.8421L158.113 72.7515ZM177.212 82.8133C175.746 82.0411 173.932 82.6034 173.16 84.0693C172.388 85.5352 172.95 87.3495 174.416 88.1218L174.588 88.2124C176.054 88.9846 177.868 88.4223 178.64 86.9565C179.413 85.4906 178.85 83.6762 177.384 82.904L177.212 82.8133ZM196.312 92.8752C194.846 92.103 193.032 92.6653 192.259 94.1312C191.487 95.597 192.049 97.4114 193.515 98.1836L193.687 98.2743C195.153 99.0465 196.968 98.4842 197.74 97.0183C198.512 95.5525 197.95 93.7381 196.484 92.9659L196.312 92.8752ZM215.411 102.937C213.946 102.165 212.131 102.727 211.359 104.193C210.587 105.659 211.149 107.473 212.615 108.246L212.787 108.336C214.253 109.108 216.067 108.546 216.839 107.08C217.612 105.614 217.049 103.8 215.584 103.028L215.411 102.937ZM234.511 112.999C233.045 112.227 231.231 112.789 230.459 114.255C229.686 115.721 230.249 117.535 231.715 118.307L231.887 118.398C233.353 119.17 235.167 118.608 235.939 117.142C236.711 115.676 236.149 113.862 234.683 113.09L234.511 112.999ZM253.611 123.061C252.145 122.289 250.33 122.851 249.558 124.317C248.786 125.783 249.348 127.597 250.814 128.369L250.986 128.46C252.452 129.232 254.266 128.67 255.039 127.204C255.811 125.738 255.249 123.924 253.783 123.152L253.611 123.061ZM62.7634 39.0553C63.5357 37.5894 65.35 37.0271 66.8159 37.7993L66.988 37.89C68.4539 38.6622 69.0162 40.4765 68.2439 41.9424C67.4717 43.4083 65.6573 43.9706 64.1915 43.1984L64.0194 43.1077C62.5535 42.3355 61.9912 40.5211 62.7634 39.0553ZM81.8631 49.1171C82.6353 47.6512 84.4496 47.0889 85.9155 47.8612L86.0876 47.9518C87.5535 48.7241 88.1158 50.5384 87.3436 52.0043C86.5713 53.4702 84.7569 54.0325 83.2911 53.2603L83.119 53.1696C81.6531 52.3974 81.0908 50.583 81.8631 49.1171ZM100.963 59.179C101.735 57.7131 103.549 57.1508 105.015 57.923L105.187 58.0137C106.653 58.7859 107.215 60.6003 106.443 62.0662C105.671 63.5321 103.857 64.0944 102.391 63.3221L102.219 63.2315C100.753 62.4592 100.19 60.6449 100.963 59.179ZM120.062 69.2409C120.835 67.775 122.649 67.2127 124.115 67.9849L124.287 68.0756C125.753 68.8478 126.315 70.6622 125.543 72.1281C124.771 73.5939 122.956 74.1562 121.49 73.384L121.318 73.2934C119.852 72.5211 119.29 70.7068 120.062 69.2409ZM139.162 79.3027C139.934 77.8369 141.748 77.2746 143.214 78.0468L143.386 78.1375C144.852 78.9097 145.415 80.7241 144.642 82.1899C143.87 83.6558 142.056 84.2181 140.59 83.4459L140.418 83.3552C138.952 82.583 138.39 80.7686 139.162 79.3027ZM158.261 89.3646C159.034 87.8987 160.848 87.3364 162.314 88.1087L162.486 88.1993C163.952 88.9716 164.514 90.7859 163.742 92.2518C162.97 93.7177 161.155 94.28 159.689 93.5078L159.517 93.4171C158.052 92.6449 157.489 90.8305 158.261 89.3646ZM177.361 99.4265C178.133 97.9606 179.948 97.3983 181.414 98.1706L181.586 98.2612C183.052 99.0334 183.614 100.848 182.842 102.314C182.069 103.78 180.255 104.342 178.789 103.57L178.617 103.479C177.151 102.707 176.589 100.892 177.361 99.4265ZM196.461 109.488C197.233 108.022 199.047 107.46 200.513 108.232L200.685 108.323C202.151 109.095 202.713 110.91 201.941 112.376C201.169 113.841 199.355 114.404 197.889 113.632L197.717 113.541C196.251 112.769 195.688 110.954 196.461 109.488ZM215.56 119.55C216.333 118.084 218.147 117.522 219.613 118.294L219.785 118.385C221.251 119.157 221.813 120.972 221.041 122.437C220.269 123.903 218.454 124.466 216.988 123.693L216.816 123.603C215.35 122.83 214.788 121.016 215.56 119.55ZM234.66 129.612C235.432 128.146 237.247 127.584 238.712 128.356L238.884 128.447C240.35 129.219 240.913 131.033 240.14 132.499C239.368 133.965 237.554 134.528 236.088 133.755L235.916 133.665C234.45 132.892 233.888 131.078 234.66 129.612ZM253.76 139.674C254.532 138.208 256.346 137.646 257.812 138.418L257.984 138.509C259.45 139.281 260.012 141.095 259.24 142.561C258.468 144.027 256.653 144.589 255.188 143.817L255.015 143.726C253.55 142.954 252.987 141.14 253.76 139.674ZM54.051 44.6156C52.5851 43.8433 50.7707 44.4056 49.9985 45.8715C49.2263 47.3374 49.7886 49.1518 51.2544 49.924L51.4265 50.0146C52.8924 50.7869 54.7067 50.2246 55.479 48.7587C56.2512 47.2928 55.6889 45.4785 54.223 44.7062L54.051 44.6156ZM73.1506 54.6775C71.6847 53.9052 69.8703 54.4675 69.0981 55.9334C68.3259 57.3993 68.8882 59.2136 70.354 59.9859L70.5261 60.0765C71.992 60.8488 73.8064 60.2865 74.5786 58.8206C75.3508 57.3547 74.7885 55.5403 73.3226 54.7681L73.1506 54.6775ZM92.2502 64.7393C90.7843 63.9671 88.9699 64.5294 88.1977 65.9953C87.4255 67.4612 87.9878 69.2755 89.4536 70.0478L89.6257 70.1384C91.0916 70.9106 92.906 70.3483 93.6782 68.8825C94.4504 67.4166 93.8881 65.6022 92.4223 64.83L92.2502 64.7393ZM111.35 74.8012C109.884 74.029 108.07 74.5913 107.297 76.0571C106.525 77.523 107.087 79.3374 108.553 80.1096L108.725 80.2003C110.191 80.9725 112.006 80.4102 112.778 78.9443C113.55 77.4785 112.988 75.6641 111.522 74.8919L111.35 74.8012ZM130.449 84.8631C128.984 84.0909 127.169 84.6532 126.397 86.119C125.625 87.5849 126.187 89.3993 127.653 90.1715L127.825 90.2622C129.291 91.0344 131.105 90.4721 131.877 89.0062C132.65 87.5403 132.087 85.726 130.621 84.9537L130.449 84.8631ZM149.549 94.925C148.083 94.1527 146.269 94.715 145.497 96.1809C144.724 97.6468 145.287 99.4611 146.752 100.233L146.925 100.324C148.39 101.096 150.205 100.534 150.977 99.0681C151.749 97.6022 151.187 95.7878 149.721 95.0156L149.549 94.925ZM168.649 104.987C167.183 104.215 165.368 104.777 164.596 106.243C163.824 107.709 164.386 109.523 165.852 110.295L166.024 110.386C167.49 111.158 169.304 110.596 170.077 109.13C170.849 107.664 170.287 105.85 168.821 105.077L168.649 104.987ZM187.748 115.049C186.282 114.276 184.468 114.839 183.696 116.305C182.923 117.771 183.486 119.585 184.952 120.357L185.124 120.448C186.59 121.22 188.404 120.658 189.176 119.192C189.948 117.726 189.386 115.912 187.92 115.139L187.748 115.049ZM206.848 125.111C205.382 124.338 203.568 124.901 202.795 126.367C202.023 127.832 202.585 129.647 204.051 130.419L204.223 130.51C205.689 131.282 207.504 130.72 208.276 129.254C209.048 127.788 208.486 125.973 207.02 125.201L206.848 125.111ZM225.947 135.172C224.482 134.4 222.667 134.963 221.895 136.428C221.123 137.894 221.685 139.709 223.151 140.481L223.323 140.572C224.789 141.344 226.603 140.781 227.375 139.316C228.148 137.85 227.585 136.035 226.12 135.263L225.947 135.172ZM245.047 145.234C243.581 144.462 241.767 145.024 240.995 146.49C240.222 147.956 240.785 149.771 242.25 150.543L242.423 150.633C243.888 151.406 245.703 150.843 246.475 149.377C247.247 147.912 246.685 146.097 245.219 145.325L245.047 145.234ZM264.147 155.296C262.681 154.524 260.866 155.086 260.094 156.552C259.322 158.018 259.884 159.832 261.35 160.605L261.522 160.695C262.988 161.468 264.802 160.905 265.575 159.439C266.347 157.973 265.785 156.159 264.319 155.387L264.147 155.296ZM16.0866 41.1503C16.8589 39.6844 18.6732 39.1221 20.1391 39.8944L20.2251 39.9397C21.691 40.7119 22.2533 42.5263 21.4811 43.9922C20.7088 45.4581 18.8945 46.0204 17.4286 45.2481L17.3426 45.2028C15.8767 44.4306 15.3144 42.6162 16.0866 41.1503ZM35.1002 51.1669C35.8724 49.701 37.6868 49.1387 39.1527 49.9109L39.3247 50.0016C40.7906 50.7738 41.3529 52.5882 40.5807 54.054C39.8084 55.5199 37.9941 56.0822 36.5282 55.31L36.3561 55.2193C34.8903 54.4471 34.328 52.6328 35.1002 51.1669ZM54.1998 61.2287C54.972 59.7629 56.7864 59.2005 58.2523 59.9728L58.4243 60.0634C59.8902 60.8357 60.4525 62.65 59.6803 64.1159C58.9081 65.5818 57.0937 66.1441 55.6278 65.3719L55.4557 65.2812C53.9899 64.509 53.4276 62.6946 54.1998 61.2287ZM73.2994 71.2906C74.0716 69.8247 75.886 69.2624 77.3519 70.0347L77.524 70.1253C78.9898 70.8976 79.5521 72.7119 78.7799 74.1778C78.0077 75.6437 76.1933 76.206 74.7274 75.4337L74.5553 75.3431C73.0895 74.5709 72.5272 72.7565 73.2994 71.2906ZM92.399 81.3525C93.1712 79.8866 94.9856 79.3243 96.4515 80.0965L96.6236 80.1872C98.0894 80.9594 98.6518 82.7738 97.8795 84.2397C97.1073 85.7056 95.2929 86.2679 93.827 85.4956L93.655 85.405C92.1891 84.6327 91.6268 82.8184 92.399 81.3525ZM111.499 91.4144C112.271 89.9485 114.085 89.3862 115.551 90.1584L115.723 90.2491C117.189 91.0213 117.751 92.8357 116.979 94.3016C116.207 95.7674 114.393 96.3297 112.927 95.5575L112.755 95.4668C111.289 94.6946 110.726 92.8802 111.499 91.4144ZM130.598 101.476C131.37 100.01 133.185 99.4481 134.651 100.22L134.823 100.311C136.289 101.083 136.851 102.898 136.079 104.363C135.306 105.829 133.492 106.392 132.026 105.619L131.854 105.529C130.388 104.756 129.826 102.942 130.598 101.476ZM149.698 111.538C150.47 110.072 152.284 109.51 153.75 110.282L153.922 110.373C155.388 111.145 155.951 112.959 155.178 114.425C154.406 115.891 152.592 116.453 151.126 115.681L150.954 115.591C149.488 114.818 148.926 113.004 149.698 111.538ZM168.797 121.6C169.57 120.134 171.384 119.572 172.85 120.344L173.022 120.435C174.488 121.207 175.05 123.021 174.278 124.487C173.506 125.953 171.691 126.515 170.225 125.743L170.053 125.652C168.587 124.88 168.025 123.066 168.797 121.6ZM187.897 131.662C188.669 130.196 190.484 129.634 191.95 130.406L192.122 130.497C193.587 131.269 194.15 133.083 193.378 134.549C192.605 136.015 190.791 136.577 189.325 135.805L189.153 135.714C187.687 134.942 187.125 133.128 187.897 131.662ZM206.997 141.724C207.769 140.258 209.583 139.696 211.049 140.468L211.221 140.558C212.687 141.331 213.249 143.145 212.477 144.611C211.705 146.077 209.891 146.639 208.425 145.867L208.253 145.776C206.787 145.004 206.224 143.19 206.997 141.724ZM226.096 151.786C226.868 150.32 228.683 149.757 230.149 150.53L230.321 150.62C231.787 151.393 232.349 153.207 231.577 154.673C230.805 156.139 228.99 156.701 227.524 155.929L227.352 155.838C225.886 155.066 225.324 153.252 226.096 151.786ZM245.196 161.847C245.968 160.382 247.782 159.819 249.248 160.592L249.42 160.682C250.886 161.454 251.449 163.269 250.676 164.735C249.904 166.201 248.09 166.763 246.624 165.991L246.452 165.9C244.986 165.128 244.424 163.313 245.196 161.847ZM264.296 171.909C265.068 170.443 266.882 169.881 268.348 170.653L268.52 170.744C269.986 171.516 270.548 173.331 269.776 174.797C269.004 176.262 267.189 176.825 265.724 176.053L265.551 175.962C264.086 175.19 263.523 173.375 264.296 171.909ZM24.2544 55.2063C22.7885 54.434 20.9741 54.9963 20.2019 56.4622C19.4297 57.9281 19.992 59.7424 21.4578 60.5147L21.6299 60.6053C23.0958 61.3776 24.9101 60.8153 25.6824 59.3494C26.4546 57.8835 25.8923 56.0692 24.4264 55.2969L24.2544 55.2063ZM43.354 65.2681C41.8881 64.4959 40.0737 65.0582 39.3015 66.5241C38.5293 67.99 39.0916 69.8043 40.5574 70.5766L40.7295 70.6672C42.1954 71.4395 44.0098 70.8771 44.782 69.4113C45.5542 67.9454 44.9919 66.131 43.526 65.3588L43.354 65.2681ZM62.4536 75.33C60.9877 74.5578 59.1733 75.1201 58.4011 76.586C57.6289 78.0518 58.1912 79.8662 59.657 80.6384L59.8291 80.7291C61.295 81.5013 63.1094 80.939 63.8816 79.4731C64.6538 78.0073 64.0915 76.1929 62.6257 75.4207L62.4536 75.33ZM81.5532 85.3919C80.0873 84.6196 78.2729 85.1819 77.5007 86.6478C76.7285 88.1137 77.2908 89.9281 78.7567 90.7003L78.9287 90.791C80.3946 91.5632 82.209 91.0009 82.9812 89.535C83.7534 88.0691 83.1911 86.2548 81.7253 85.4825L81.5532 85.3919ZM100.653 95.4538C99.1869 94.6815 97.3726 95.2438 96.6003 96.7097C95.8281 98.1756 96.3904 99.9899 97.8563 100.762L98.0283 100.853C99.4942 101.625 101.309 101.063 102.081 99.5969C102.853 98.131 102.291 96.3167 100.825 95.5444L100.653 95.4538ZM119.752 105.516C118.287 104.743 116.472 105.306 115.7 106.772C114.928 108.237 115.49 110.052 116.956 110.824L117.128 110.915C118.594 111.687 120.408 111.125 121.18 109.659C121.953 108.193 121.39 106.379 119.924 105.606L119.752 105.516ZM138.852 115.577C137.386 114.805 135.572 115.368 134.8 116.833C134.027 118.299 134.59 120.114 136.055 120.886L136.228 120.977C137.693 121.749 139.508 121.187 140.28 119.721C141.052 118.255 140.49 116.44 139.024 115.668L138.852 115.577ZM157.952 125.639C156.486 124.867 154.671 125.429 153.899 126.895C153.127 128.361 153.689 130.176 155.155 130.948L155.327 131.038C156.793 131.811 158.607 131.248 159.38 129.783C160.152 128.317 159.59 126.502 158.124 125.73L157.952 125.639ZM177.051 135.701C175.585 134.929 173.771 135.491 172.999 136.957C172.227 138.423 172.789 140.237 174.255 141.01L174.427 141.1C175.893 141.873 177.707 141.31 178.479 139.844C179.251 138.378 178.689 136.564 177.223 135.792L177.051 135.701ZM196.151 145.763C194.685 144.991 192.871 145.553 192.098 147.019C191.326 148.485 191.888 150.299 193.354 151.072L193.526 151.162C194.992 151.934 196.807 151.372 197.579 149.906C198.351 148.44 197.789 146.626 196.323 145.854L196.151 145.763ZM215.25 155.825C213.785 155.053 211.97 155.615 211.198 157.081C210.426 158.547 210.988 160.361 212.454 161.133L212.626 161.224C214.092 161.996 215.906 161.434 216.678 159.968C217.451 158.502 216.888 156.688 215.423 155.916L215.25 155.825ZM234.35 165.887C232.884 165.115 231.07 165.677 230.298 167.143C229.525 168.609 230.088 170.423 231.554 171.195L231.726 171.286C233.191 172.058 235.006 171.496 235.778 170.03C236.55 168.564 235.988 166.75 234.522 165.978L234.35 165.887ZM253.45 175.949C251.984 175.177 250.169 175.739 249.397 177.205C248.625 178.671 249.187 180.485 250.653 181.257L250.825 181.348C252.291 182.12 254.105 181.558 254.878 180.092C255.65 178.626 255.088 176.812 253.622 176.039L253.45 175.949ZM272.549 186.011C271.083 185.238 269.269 185.801 268.497 187.267C267.725 188.732 268.287 190.547 269.753 191.319L269.925 191.41C271.391 192.182 273.205 191.62 273.977 190.154C274.75 188.688 274.187 186.874 272.721 186.101L272.549 186.011ZM26.5365 73.3404C27.3088 71.8745 29.1231 71.3122 30.589 72.0844L30.7611 72.1751C32.227 72.9473 32.7893 74.7617 32.017 76.2275C31.2448 77.6934 29.4304 78.2557 27.9646 77.4835L27.7925 77.3928C26.3266 76.6206 25.7643 74.8062 26.5365 73.3404ZM45.6362 83.4022C46.4084 81.9364 48.2227 81.3741 49.6886 82.1463L49.8607 82.2369C51.3266 83.0092 51.8889 84.8235 51.1166 86.2894C50.3444 87.7553 48.53 88.3176 47.0642 87.5454L46.8921 87.4547C45.4262 86.6825 44.8639 84.8681 45.6362 83.4022ZM64.7358 93.4641C65.508 91.9982 67.3224 91.4359 68.7882 92.2082L68.9603 92.2988C70.4262 93.0711 70.9885 94.8854 70.2162 96.3513C69.444 97.8172 67.6297 98.3795 66.1638 97.6072L65.9917 97.5166C64.5258 96.7444 63.9635 94.93 64.7358 93.4641ZM83.8354 103.526C84.6076 102.06 86.422 101.498 87.8878 102.27L88.0599 102.361C89.5258 103.133 90.0881 104.947 89.3159 106.413C88.5436 107.879 86.7293 108.441 85.2634 107.669L85.0913 107.578C83.6254 106.806 83.0631 104.992 83.8354 103.526ZM102.935 113.588C103.707 112.122 105.522 111.56 106.987 112.332L107.16 112.423C108.625 113.195 109.188 115.009 108.415 116.475C107.643 117.941 105.829 118.503 104.363 117.731L104.191 117.64C102.725 116.868 102.163 115.054 102.935 113.588ZM122.035 123.65C122.807 122.184 124.621 121.622 126.087 122.394L126.259 122.484C127.725 123.257 128.287 125.071 127.515 126.537C126.743 128.003 124.928 128.565 123.463 127.793L123.291 127.702C121.825 126.93 121.262 125.116 122.035 123.65ZM141.134 133.712C141.906 132.246 143.721 131.683 145.187 132.456L145.359 132.546C146.825 133.319 147.387 135.133 146.615 136.599C145.842 138.065 144.028 138.627 142.562 137.855L142.39 137.764C140.924 136.992 140.362 135.178 141.134 133.712ZM160.234 143.773C161.006 142.308 162.82 141.745 164.286 142.518L164.458 142.608C165.924 143.38 166.487 145.195 165.714 146.661C164.942 148.127 163.128 148.689 161.662 147.917L161.49 147.826C160.024 147.054 159.462 145.239 160.234 143.773ZM179.333 153.835C180.106 152.369 181.92 151.807 183.386 152.579L183.558 152.67C185.024 153.442 185.586 155.257 184.814 156.723C184.042 158.188 182.227 158.751 180.761 157.979L180.589 157.888C179.123 157.116 178.561 155.301 179.333 153.835ZM198.433 163.897C199.205 162.431 201.02 161.869 202.485 162.641L202.658 162.732C204.123 163.504 204.686 165.319 203.914 166.784C203.141 168.25 201.327 168.813 199.861 168.04L199.689 167.95C198.223 167.177 197.661 165.363 198.433 163.897ZM217.533 173.959C218.305 172.493 220.119 171.931 221.585 172.703L221.757 172.794C223.223 173.566 223.785 175.38 223.013 176.846C222.241 178.312 220.427 178.874 218.961 178.102L218.789 178.012C217.323 177.239 216.76 175.425 217.533 173.959ZM236.632 184.021C237.404 182.555 239.219 181.993 240.685 182.765L240.857 182.856C242.323 183.628 242.885 185.442 242.113 186.908C241.34 188.374 239.526 188.936 238.06 188.164L237.888 188.073C236.422 187.301 235.86 185.487 236.632 184.021ZM255.732 194.083C256.504 192.617 258.318 192.055 259.784 192.827L259.956 192.918C261.422 193.69 261.985 195.504 261.212 196.97C260.44 198.436 258.626 198.998 257.16 198.226L256.988 198.135C255.522 197.363 254.96 195.549 255.732 194.083ZM36.8842 86.963C35.4183 86.1907 33.6039 86.753 32.8317 88.2189C32.0594 89.6848 32.6217 91.4991 34.0876 92.2714L34.2597 92.362C35.7256 93.1343 37.5399 92.572 38.3122 91.1061C39.0844 89.6402 38.5221 87.8259 37.0562 87.0536L36.8842 86.963ZM55.9838 97.0248C54.5179 96.2526 52.7035 96.8149 51.9313 98.2808C51.1591 99.7467 51.7214 101.561 53.1872 102.333L53.3593 102.424C54.8252 103.196 56.6395 102.634 57.4118 101.168C58.184 99.7021 57.6217 97.8877 56.1558 97.1155L55.9838 97.0248ZM75.0834 107.087C73.6175 106.314 71.8031 106.877 71.0309 108.343C70.2587 109.809 70.821 111.623 72.2868 112.395L72.4589 112.486C73.9248 113.258 75.7392 112.696 76.5114 111.23C77.2836 109.764 76.7213 107.95 75.2554 107.177L75.0834 107.087ZM94.183 117.149C92.7171 116.376 90.9027 116.939 90.1305 118.405C89.3583 119.87 89.9206 121.685 91.3864 122.457L91.5585 122.548C93.0244 123.32 94.8388 122.758 95.611 121.292C96.3832 119.826 95.821 118.011 94.3551 117.239L94.183 117.149ZM113.283 127.21C111.817 126.438 110.002 127.001 109.23 128.466C108.458 129.932 109.02 131.747 110.486 132.519L110.658 132.61C112.124 133.382 113.938 132.819 114.711 131.354C115.483 129.888 114.921 128.073 113.455 127.301L113.283 127.21ZM132.382 137.272C130.916 136.5 129.102 137.062 128.33 138.528C127.557 139.994 128.12 141.809 129.586 142.581L129.758 142.671C131.224 143.444 133.038 142.881 133.81 141.415C134.582 139.95 134.02 138.135 132.554 137.363L132.382 137.272ZM151.482 147.334C150.016 146.562 148.202 147.124 147.429 148.59C146.657 150.056 147.219 151.87 148.685 152.643L148.857 152.733C150.323 153.506 152.138 152.943 152.91 151.477C153.682 150.011 153.12 148.197 151.654 147.425L151.482 147.334ZM170.581 157.396C169.116 156.624 167.301 157.186 166.529 158.652C165.757 160.118 166.319 161.932 167.785 162.705L167.957 162.795C169.423 163.567 171.237 163.005 172.009 161.539C172.782 160.073 172.219 158.259 170.753 157.487L170.581 157.396ZM189.681 167.458C188.215 166.686 186.401 167.248 185.629 168.714C184.856 170.18 185.419 171.994 186.884 172.766L187.057 172.857C188.522 173.629 190.337 173.067 191.109 171.601C191.881 170.135 191.319 168.321 189.853 167.549L189.681 167.458ZM208.781 177.52C207.315 176.748 205.5 177.31 204.728 178.776C203.956 180.242 204.518 182.056 205.984 182.828L206.156 182.919C207.622 183.691 209.436 183.129 210.209 181.663C210.981 180.197 210.419 178.383 208.953 177.61L208.781 177.52ZM227.88 187.582C226.414 186.809 224.6 187.372 223.828 188.838C223.056 190.304 223.618 192.118 225.084 192.89L225.256 192.981C226.722 193.753 228.536 193.191 229.308 191.725C230.081 190.259 229.518 188.445 228.052 187.672L227.88 187.582ZM246.98 197.644C245.514 196.871 243.7 197.434 242.927 198.9C242.155 200.365 242.717 202.18 244.183 202.952L244.355 203.043C245.821 203.815 247.636 203.253 248.408 201.787C249.18 200.321 248.618 198.506 247.152 197.734L246.98 197.644ZM266.079 207.705C264.614 206.933 262.799 207.496 262.027 208.961C261.255 210.427 261.817 212.242 263.283 213.014L263.455 213.105C264.921 213.877 266.735 213.314 267.507 211.849C268.28 210.383 267.717 208.568 266.252 207.796L266.079 207.705ZM37.033 103.576C37.8052 102.11 39.6196 101.548 41.0855 102.32L41.2575 102.411C42.7234 103.183 43.2857 104.997 42.5135 106.463C41.7412 107.929 39.9269 108.491 38.461 107.719L38.2889 107.629C36.8231 106.856 36.2608 105.042 37.033 103.576ZM56.1326 113.638C56.9048 112.172 58.7192 111.61 60.1851 112.382L60.3571 112.473C61.823 113.245 62.3853 115.059 61.6131 116.525C60.8409 117.991 59.0265 118.553 57.5606 117.781L57.3885 117.69C55.9227 116.918 55.3604 115.104 56.1326 113.638ZM75.2322 123.7C76.0044 122.234 77.8188 121.672 79.2847 122.444L79.4568 122.535C80.9226 123.307 81.4849 125.121 80.7127 126.587C79.9405 128.053 78.1261 128.615 76.6602 127.843L76.4881 127.752C75.0223 126.98 74.46 125.166 75.2322 123.7ZM94.3318 133.762C95.1041 132.296 96.9184 131.734 98.3843 132.506L98.5564 132.596C100.022 133.369 100.585 135.183 99.8123 136.649C99.0401 138.115 97.2257 138.677 95.7598 137.905L95.5878 137.814C94.1219 137.042 93.5596 135.228 94.3318 133.762ZM113.431 143.824C114.204 142.358 116.018 141.795 117.484 142.568L117.656 142.658C119.122 143.431 119.684 145.245 118.912 146.711C118.14 148.177 116.325 148.739 114.859 147.967L114.687 147.876C113.221 147.104 112.659 145.29 113.431 143.824ZM132.531 153.886C133.303 152.42 135.118 151.857 136.583 152.63L136.756 152.72C138.221 153.492 138.784 155.307 138.012 156.773C137.239 158.239 135.425 158.801 133.959 158.029L133.787 157.938C132.321 157.166 131.759 155.351 132.531 153.886ZM151.631 163.947C152.403 162.481 154.217 161.919 155.683 162.691L155.855 162.782C157.321 163.554 157.883 165.369 157.111 166.835C156.339 168.3 154.525 168.863 153.059 168.09L152.887 168C151.421 167.228 150.858 165.413 151.631 163.947ZM170.73 174.009C171.502 172.543 173.317 171.981 174.783 172.753L174.955 172.844C176.421 173.616 176.983 175.431 176.211 176.896C175.438 178.362 173.624 178.925 172.158 178.152L171.986 178.062C170.52 177.289 169.958 175.475 170.73 174.009ZM189.83 184.071C190.602 182.605 192.416 182.043 193.882 182.815L194.054 182.906C195.52 183.678 196.083 185.492 195.31 186.958C194.538 188.424 192.724 188.986 191.258 188.214L191.086 188.124C189.62 187.351 189.058 185.537 189.83 184.071ZM208.929 194.133C209.702 192.667 211.516 192.105 212.982 192.877L213.154 192.968C214.62 193.74 215.182 195.554 214.41 197.02C213.638 198.486 211.823 199.048 210.357 198.276L210.185 198.185C208.72 197.413 208.157 195.599 208.929 194.133ZM228.029 204.195C228.801 202.729 230.616 202.167 232.082 202.939L232.254 203.03C233.719 203.802 234.282 205.616 233.51 207.082C232.737 208.548 230.923 209.11 229.457 208.338L229.285 208.247C227.819 207.475 227.257 205.661 228.029 204.195ZM247.129 214.257C247.901 212.791 249.715 212.229 251.181 213.001L251.353 213.091C252.819 213.864 253.381 215.678 252.609 217.144C251.837 218.61 250.023 219.172 248.557 218.4L248.385 218.309C246.919 217.537 246.356 215.723 247.129 214.257ZM266.228 224.319C267.001 222.853 268.815 222.29 270.281 223.063L270.453 223.153C271.919 223.926 272.481 225.74 271.709 227.206C270.937 228.672 269.122 229.234 267.656 228.462L267.484 228.371C266.018 227.599 265.456 225.785 266.228 224.319ZM47.4201 119.198C45.9542 118.426 44.1399 118.988 43.3676 120.454C42.5954 121.92 43.1577 123.735 44.6236 124.507L44.7957 124.597C46.2615 125.37 48.0759 124.807 48.8481 123.341C49.6204 121.876 49.0581 120.061 47.5922 119.289L47.4201 119.198ZM66.5197 129.26C65.0538 128.488 63.2395 129.05 62.4673 130.516C61.695 131.982 62.2573 133.796 63.7232 134.569L63.8953 134.659C65.3611 135.432 67.1755 134.869 67.9478 133.403C68.72 131.937 68.1577 130.123 66.6918 129.351L66.5197 129.26ZM85.6193 139.322C84.1535 138.55 82.3391 139.112 81.5668 140.578C80.7946 142.044 81.3569 143.858 82.8228 144.631L82.9949 144.721C84.4608 145.493 86.2751 144.931 87.0473 143.465C87.8196 141.999 87.2573 140.185 85.7914 139.413L85.6193 139.322ZM104.719 149.384C103.253 148.612 101.439 149.174 100.666 150.64C99.8942 152.106 100.457 153.92 101.922 154.692L102.094 154.783C103.56 155.555 105.375 154.993 106.147 153.527C106.919 152.061 106.357 150.247 104.891 149.475L104.719 149.384ZM123.819 159.446C122.353 158.674 120.538 159.236 119.766 160.702C118.994 162.168 119.556 163.982 121.022 164.754L121.194 164.845C122.66 165.617 124.474 165.055 125.247 163.589C126.019 162.123 125.456 160.309 123.991 159.536L123.819 159.446ZM142.918 169.508C141.452 168.735 139.638 169.298 138.866 170.764C138.093 172.23 138.656 174.044 140.122 174.816L140.294 174.907C141.76 175.679 143.574 175.117 144.346 173.651C145.118 172.185 144.556 170.371 143.09 169.598L142.918 169.508ZM162.018 179.57C160.552 178.797 158.738 179.36 157.965 180.826C157.193 182.291 157.755 184.106 159.221 184.878L159.393 184.969C160.859 185.741 162.674 185.179 163.446 183.713C164.218 182.247 163.656 180.432 162.19 179.66L162.018 179.57ZM181.117 189.631C179.651 188.859 177.837 189.422 177.065 190.887C176.293 192.353 176.855 194.168 178.321 194.94L178.493 195.031C179.959 195.803 181.773 195.24 182.545 193.775C183.318 192.309 182.755 190.494 181.289 189.722L181.117 189.631ZM200.217 199.693C198.751 198.921 196.937 199.483 196.164 200.949C195.392 202.415 195.955 204.23 197.42 205.002L197.592 205.092C199.058 205.865 200.873 205.302 201.645 203.836C202.417 202.371 201.855 200.556 200.389 199.784L200.217 199.693ZM219.317 209.755C217.851 208.983 216.036 209.545 215.264 211.011C214.492 212.477 215.054 214.291 216.52 215.064L216.692 215.154C218.158 215.927 219.972 215.364 220.745 213.898C221.517 212.432 220.955 210.618 219.489 209.846L219.317 209.755ZM238.416 219.817C236.95 219.045 235.136 219.607 234.364 221.073C233.591 222.539 234.154 224.353 235.62 225.126L235.792 225.216C237.258 225.988 239.072 225.426 239.844 223.96C240.616 222.494 240.054 220.68 238.588 219.908L238.416 219.817ZM257.516 229.879C256.05 229.107 254.236 229.669 253.463 231.135C252.691 232.601 253.253 234.415 254.719 235.187L254.891 235.278C256.357 236.05 258.172 235.488 258.944 234.022C259.716 232.556 259.154 230.742 257.688 229.97L257.516 229.879ZM29.4889 126.73C30.2611 125.264 32.0755 124.701 33.5414 125.474L33.7135 125.564C35.1793 126.337 35.7416 128.151 34.9694 129.617C34.1972 131.083 32.3828 131.645 30.9169 130.873L30.7448 130.782C29.279 130.01 28.7167 128.196 29.4889 126.73ZM48.5885 136.792C49.3607 135.326 51.1751 134.763 52.641 135.536L52.8131 135.626C54.2789 136.398 54.8412 138.213 54.069 139.679C53.2968 141.145 51.4824 141.707 50.0165 140.935L49.8445 140.844C48.3786 140.072 47.8163 138.257 48.5885 136.792ZM67.6881 146.853C68.4604 145.388 70.2747 144.825 71.7406 145.597L71.9127 145.688C73.3786 146.46 73.9409 148.275 73.1686 149.741C72.3964 151.206 70.582 151.769 69.1161 150.997L68.9441 150.906C67.4782 150.134 66.9159 148.319 67.6881 146.853ZM86.7877 156.915C87.56 155.449 89.3743 154.887 90.8402 155.659L91.0123 155.75C92.4781 156.522 93.0405 158.337 92.2682 159.802C91.496 161.268 89.6816 161.831 88.2157 161.058L88.0437 160.968C86.5778 160.196 86.0155 158.381 86.7877 156.915ZM105.887 166.977C106.66 165.511 108.474 164.949 109.94 165.721L110.112 165.812C111.578 166.584 112.14 168.398 111.368 169.864C110.596 171.33 108.781 171.893 107.315 171.12L107.143 171.03C105.677 170.257 105.115 168.443 105.887 166.977ZM124.987 177.039C125.759 175.573 127.574 175.011 129.039 175.783L129.211 175.874C130.677 176.646 131.24 178.46 130.467 179.926C129.695 181.392 127.881 181.954 126.415 181.182L126.243 181.092C124.777 180.319 124.215 178.505 124.987 177.039ZM144.087 187.101C144.859 185.635 146.673 185.073 148.139 185.845L148.311 185.936C149.777 186.708 150.339 188.522 149.567 189.988C148.795 191.454 146.98 192.016 145.515 191.244L145.342 191.153C143.877 190.381 143.314 188.567 144.087 187.101ZM163.186 197.163C163.958 195.697 165.773 195.135 167.239 195.907L167.411 195.997C168.877 196.77 169.439 198.584 168.667 200.05C167.894 201.516 166.08 202.078 164.614 201.306L164.442 201.215C162.976 200.443 162.414 198.629 163.186 197.163ZM182.286 207.225C183.058 205.759 184.872 205.196 186.338 205.969L186.51 206.059C187.976 206.832 188.538 208.646 187.766 210.112C186.994 211.578 185.18 212.14 183.714 211.368L183.542 211.277C182.076 210.505 181.513 208.691 182.286 207.225ZM201.385 217.287C202.158 215.821 203.972 215.258 205.438 216.031L205.61 216.121C207.076 216.894 207.638 218.708 206.866 220.174C206.094 221.64 204.279 222.202 202.813 221.43L202.641 221.339C201.175 220.567 200.613 218.752 201.385 217.287ZM220.485 227.348C221.257 225.883 223.072 225.32 224.537 226.092L224.71 226.183C226.175 226.955 226.738 228.77 225.965 230.236C225.193 231.701 223.379 232.264 221.913 231.492L221.741 231.401C220.275 230.629 219.713 228.814 220.485 227.348ZM37.7427 140.831C36.2768 140.059 34.4624 140.621 33.6902 142.087C32.918 143.553 33.4803 145.367 34.9462 146.139L35.1182 146.23C36.5841 147.002 38.3985 146.44 39.1707 144.974C39.9429 143.508 39.3806 141.694 37.9148 140.922L37.7427 140.831ZM56.8423 150.893C55.3764 150.121 53.5621 150.683 52.7898 152.149C52.0176 153.615 52.5799 155.429 54.0458 156.201L54.2178 156.292C55.6837 157.064 57.4981 156.502 58.2703 155.036C59.0426 153.57 58.4803 151.756 57.0144 150.983L56.8423 150.893ZM75.9419 160.955C74.476 160.182 72.6617 160.745 71.8894 162.211C71.1172 163.676 71.6795 165.491 73.1454 166.263L73.3174 166.354C74.7833 167.126 76.5977 166.564 77.3699 165.098C78.1422 163.632 77.5798 161.818 76.114 161.045L75.9419 160.955ZM95.0415 171.017C93.5756 170.244 91.7613 170.807 90.989 172.273C90.2168 173.738 90.7791 175.553 92.245 176.325L92.4171 176.416C93.8829 177.188 95.6973 176.626 96.4695 175.16C97.2418 173.694 96.6794 171.879 95.2136 171.107L95.0415 171.017ZM114.141 181.078C112.675 180.306 110.861 180.869 110.089 182.334C109.316 183.8 109.879 185.615 111.345 186.387L111.517 186.477C112.983 187.25 114.797 186.687 115.569 185.222C116.341 183.756 115.779 181.941 114.313 181.169L114.141 181.078ZM133.241 191.14C131.775 190.368 129.96 190.93 129.188 192.396C128.416 193.862 128.978 195.676 130.444 196.449L130.616 196.539C132.082 197.312 133.896 196.749 134.669 195.283C135.441 193.818 134.879 192.003 133.413 191.231L133.241 191.14ZM152.34 201.202C150.874 200.43 149.06 200.992 148.288 202.458C147.516 203.924 148.078 205.738 149.544 206.511L149.716 206.601C151.182 207.373 152.996 206.811 153.768 205.345C154.541 203.879 153.978 202.065 152.512 201.293L152.34 201.202ZM171.44 211.264C169.974 210.492 168.16 211.054 167.387 212.52C166.615 213.986 167.177 215.8 168.643 216.572L168.815 216.663C170.281 217.435 172.096 216.873 172.868 215.407C173.64 213.941 173.078 212.127 171.612 211.355L171.44 211.264ZM190.54 221.326C189.074 220.554 187.259 221.116 186.487 222.582C185.715 224.048 186.277 225.862 187.743 226.634L187.915 226.725C189.381 227.497 191.195 226.935 191.968 225.469C192.74 224.003 192.177 222.189 190.712 221.417L190.54 221.326ZM209.639 231.388C208.173 230.616 206.359 231.178 205.587 232.644C204.814 234.11 205.377 235.924 206.843 236.696L207.015 236.787C208.481 237.559 210.295 236.997 211.067 235.531C211.839 234.065 211.277 232.251 209.811 231.478L209.639 231.388ZM40.0249 158.965C40.7971 157.499 42.6115 156.937 44.0773 157.709L44.2494 157.8C45.7153 158.572 46.2776 160.386 45.5054 161.852C44.7331 163.318 42.9188 163.88 41.4529 163.108L41.2808 163.018C39.8149 162.245 39.2526 160.431 40.0249 158.965ZM59.1245 169.027C59.8967 167.561 61.7111 166.999 63.1769 167.771L63.349 167.862C64.8149 168.634 65.3772 170.448 64.605 171.914C63.8327 173.38 62.0184 173.942 60.5525 173.17L60.3804 173.079C58.9145 172.307 58.3522 170.493 59.1245 169.027ZM78.2241 179.089C78.9963 177.623 80.8107 177.061 82.2766 177.833L82.4486 177.923C83.9145 178.696 84.4768 180.51 83.7046 181.976C82.9323 183.442 81.118 184.004 79.6521 183.232L79.48 183.141C78.0141 182.369 77.4518 180.555 78.2241 179.089ZM97.3237 189.151C98.0959 187.685 99.9103 187.122 101.376 187.895L101.548 187.985C103.014 188.758 103.576 190.572 102.804 192.038C102.032 193.504 100.218 194.066 98.7517 193.294L98.5796 193.203C97.1137 192.431 96.5514 190.617 97.3237 189.151ZM116.423 199.213C117.196 197.747 119.01 197.184 120.476 197.957L120.648 198.047C122.114 198.819 122.676 200.634 121.904 202.1C121.132 203.566 119.317 204.128 117.851 203.356L117.679 203.265C116.213 202.493 115.651 200.678 116.423 199.213ZM135.523 209.274C136.295 207.809 138.109 207.246 139.575 208.018L139.747 208.109C141.213 208.881 141.776 210.696 141.003 212.162C140.231 213.627 138.417 214.19 136.951 213.418L136.779 213.327C135.313 212.555 134.751 210.74 135.523 209.274ZM154.622 219.336C155.395 217.87 157.209 217.308 158.675 218.08L158.847 218.171C160.313 218.943 160.875 220.758 160.103 222.223C159.331 223.689 157.516 224.252 156.051 223.479L155.878 223.389C154.413 222.617 153.85 220.802 154.622 219.336ZM173.722 229.398C174.494 227.932 176.309 227.37 177.775 228.142L177.947 228.233C179.413 229.005 179.975 230.819 179.203 232.285C178.43 233.751 176.616 234.314 175.15 233.541L174.978 233.451C173.512 232.678 172.95 230.864 173.722 229.398ZM192.822 239.46C193.594 237.994 195.408 237.432 196.874 238.204L197.046 238.295C198.512 239.067 199.074 240.881 198.302 242.347C197.53 243.813 195.716 244.375 194.25 243.603L194.078 243.513C192.612 242.74 192.049 240.926 192.822 239.46ZM50.2783 173.027C48.8124 172.255 46.998 172.817 46.2258 174.283C45.4535 175.749 46.0158 177.563 47.4817 178.335L47.6538 178.426C49.1197 179.198 50.934 178.636 51.7063 177.17C52.4785 175.704 51.9162 173.89 50.4503 173.117L50.2783 173.027ZM69.3779 183.089C67.912 182.316 66.0976 182.879 65.3254 184.345C64.5531 185.811 65.1154 187.625 66.5813 188.397L66.7534 188.488C68.2193 189.26 70.0336 188.698 70.8059 187.232C71.5781 185.766 71.0158 183.952 69.5499 183.179L69.3779 183.089ZM88.4775 193.151C87.0116 192.378 85.1972 192.941 84.425 194.406C83.6527 195.872 84.215 197.687 85.6809 198.459L85.853 198.55C87.3189 199.322 89.1332 198.76 89.9055 197.294C90.6777 195.828 90.1154 194.013 88.6495 193.241L88.4775 193.151ZM107.577 203.212C106.111 202.44 104.297 203.002 103.525 204.468C102.752 205.934 103.315 207.749 104.781 208.521L104.953 208.611C106.418 209.384 108.233 208.821 109.005 207.356C109.777 205.89 109.215 204.075 107.749 203.303L107.577 203.212ZM126.677 213.274C125.211 212.502 123.396 213.064 122.624 214.53C121.852 215.996 122.414 217.81 123.88 218.583L124.052 218.673C125.518 219.446 127.332 218.883 128.105 217.417C128.877 215.952 128.315 214.137 126.849 213.365L126.677 213.274ZM145.776 223.336C144.31 222.564 142.496 223.126 141.724 224.592C140.952 226.058 141.514 227.872 142.98 228.645L143.152 228.735C144.618 229.507 146.432 228.945 147.204 227.479C147.977 226.013 147.414 224.199 145.948 223.427L145.776 223.336ZM164.876 233.398C163.41 232.626 161.596 233.188 160.823 234.654C160.051 236.12 160.613 237.934 162.079 238.706L162.251 238.797C163.717 239.569 165.532 239.007 166.304 237.541C167.076 236.075 166.514 234.261 165.048 233.489L164.876 233.398ZM183.975 243.46C182.51 242.688 180.695 243.25 179.923 244.716C179.151 246.182 179.713 247.996 181.179 248.768L181.351 248.859C182.817 249.631 184.631 249.069 185.404 247.603C186.176 246.137 185.613 244.323 184.148 243.551L183.975 243.46ZM50.4271 189.64C51.1993 188.174 53.0137 187.612 54.4796 188.384L54.6516 188.475C56.1175 189.247 56.6798 191.061 55.9076 192.527C55.1353 193.993 53.321 194.555 51.8551 193.783L51.683 193.692C50.2171 192.92 49.6548 191.106 50.4271 189.64ZM69.5267 199.702C70.2989 198.236 72.1133 197.674 73.5792 198.446L73.7512 198.537C75.2171 199.309 75.7794 201.123 75.0072 202.589C74.2349 204.055 72.4206 204.617 70.9547 203.845L70.7826 203.754C69.3167 202.982 68.7544 201.168 69.5267 199.702ZM88.6263 209.764C89.3985 208.298 91.2129 207.736 92.6788 208.508L92.8508 208.598C94.3167 209.371 94.879 211.185 94.1068 212.651C93.3345 214.117 91.5202 214.679 90.0543 213.907L89.8822 213.816C88.4164 213.044 87.854 211.23 88.6263 209.764ZM107.726 219.826C108.498 218.36 110.312 217.797 111.778 218.57L111.95 218.66C113.416 219.433 113.979 221.247 113.206 222.713C112.434 224.179 110.62 224.741 109.154 223.969L108.982 223.878C107.516 223.106 106.954 221.291 107.726 219.826ZM126.826 229.887C127.598 228.422 129.412 227.859 130.878 228.632L131.05 228.722C132.516 229.494 133.078 231.309 132.306 232.775C131.534 234.241 129.719 234.803 128.254 234.031L128.081 233.94C126.616 233.168 126.053 231.353 126.826 229.887ZM145.925 239.949C146.697 238.483 148.512 237.921 149.978 238.693L150.15 238.784C151.616 239.556 152.178 241.371 151.406 242.837C150.633 244.302 148.819 244.865 147.353 244.092L147.181 244.002C145.715 243.23 145.153 241.415 145.925 239.949ZM60.8142 205.262C59.3483 204.49 57.534 205.052 56.7617 206.518C55.9895 207.984 56.5518 209.798 58.0177 210.571L58.1898 210.661C59.6556 211.433 61.47 210.871 62.2422 209.405C63.0145 207.939 62.4522 206.125 60.9863 205.353L60.8142 205.262ZM79.9138 215.324C78.4479 214.552 76.6336 215.114 75.8613 216.58C75.0891 218.046 75.6514 219.86 77.1173 220.632L77.2894 220.723C78.7552 221.495 80.5696 220.933 81.3418 219.467C82.1141 218.001 81.5518 216.187 80.0859 215.415L79.9138 215.324ZM99.0134 225.386C97.5475 224.614 95.7332 225.176 94.9609 226.642C94.1887 228.108 94.751 229.922 96.2169 230.694L96.3889 230.785C97.8548 231.557 99.6692 230.995 100.441 229.529C101.214 228.063 100.651 226.249 99.1855 225.477L99.0134 225.386ZM118.113 235.448C116.647 234.676 114.833 235.238 114.061 236.704C113.288 238.17 113.851 239.984 115.316 240.756L115.489 240.847C116.954 241.619 118.769 241.057 119.541 239.591C120.313 238.125 119.751 236.311 118.285 235.538L118.113 235.448ZM137.213 245.51C135.747 244.737 133.932 245.3 133.16 246.766C132.388 248.231 132.95 250.046 134.416 250.818L134.588 250.909C136.054 251.681 137.868 251.119 138.641 249.653C139.413 248.187 138.851 246.373 137.385 245.6L137.213 245.51ZM43.8631 211.774C44.6353 210.308 46.4496 209.746 47.9155 210.518L48.0876 210.609C49.5535 211.381 50.1158 213.195 49.3435 214.661C48.5713 216.127 46.7569 216.689 45.2911 215.917L45.119 215.826C43.6531 215.054 43.0908 213.24 43.8631 211.774ZM62.9626 221.836C63.7349 220.37 65.5492 219.808 67.0151 220.58L67.1872 220.671C68.6531 221.443 69.2154 223.257 68.4431 224.723C67.6709 226.189 65.8565 226.751 64.3907 225.979L64.2186 225.888C62.7527 225.116 62.1904 223.302 62.9626 221.836ZM82.0623 231.898C82.8345 230.432 84.6488 229.869 86.1147 230.642L86.2868 230.732C87.7527 231.505 88.315 233.319 87.5427 234.785C86.7705 236.251 84.9561 236.813 83.4903 236.041L83.3182 235.95C81.8523 235.178 81.29 233.364 82.0623 231.898ZM101.162 241.96C101.934 240.494 103.748 239.931 105.214 240.704L105.386 240.794C106.852 241.567 107.415 243.381 106.642 244.847C105.87 246.313 104.056 246.875 102.59 246.103L102.418 246.012C100.952 245.24 100.39 243.425 101.162 241.96ZM120.261 252.021C121.034 250.556 122.848 249.993 124.314 250.765L124.486 250.856C125.952 251.628 126.514 253.443 125.742 254.909C124.97 256.374 123.155 256.937 121.689 256.165L121.517 256.074C120.052 255.302 119.489 253.487 120.261 252.021ZM52.1168 225.875C50.6509 225.103 48.8366 225.665 48.0643 227.131C47.2921 228.597 47.8544 230.411 49.3203 231.184L49.4924 231.274C50.9582 232.047 52.7726 231.484 53.5448 230.018C54.3171 228.552 53.7548 226.738 52.2889 225.966L52.1168 225.875ZM71.2164 235.937C69.7505 235.165 67.9362 235.727 67.164 237.193C66.3917 238.659 66.954 240.473 68.4199 241.245L68.592 241.336C70.0578 242.108 71.8722 241.546 72.6444 240.08C73.4167 238.614 72.8544 236.8 71.3885 236.028L71.2164 235.937ZM90.316 245.999C88.8502 245.227 87.0358 245.789 86.2636 247.255C85.4913 248.721 86.0536 250.535 87.5195 251.307L87.6916 251.398C89.1575 252.17 90.9718 251.608 91.7441 250.142C92.5163 248.676 91.954 246.862 90.4881 246.09L90.316 245.999ZM109.416 256.061C107.95 255.289 106.135 255.851 105.363 257.317C104.591 258.783 105.153 260.597 106.619 261.369L106.791 261.46C108.257 262.232 110.071 261.67 110.844 260.204C111.616 258.738 111.054 256.924 109.588 256.151L109.416 256.061ZM54.399 244.009C55.1712 242.543 56.9856 241.981 58.4515 242.753L58.6236 242.844C60.0894 243.616 60.6517 245.431 59.8795 246.896C59.1073 248.362 57.2929 248.925 55.827 248.152L55.655 248.062C54.1891 247.29 53.6268 245.475 54.399 244.009ZM73.4986 254.071C74.2709 252.605 76.0852 252.043 77.5511 252.815L77.7231 252.906C79.189 253.678 79.7513 255.492 78.9791 256.958C78.2068 258.424 76.3925 258.987 74.9266 258.214L74.7546 258.124C73.2887 257.351 72.7264 255.537 73.4986 254.071ZM65.558 258.49C64.0921 257.718 62.2777 258.281 61.5055 259.746C60.7333 261.212 61.2955 263.027 62.7614 263.799L62.9335 263.89C64.3994 264.662 66.2137 264.1 66.986 262.634C67.7582 261.168 67.1959 259.353 65.73 258.581L65.558 258.49Z" fill="url(#paint0_linear_438_755)"/>
<mask id="mask0_438_755" style="mask-type:alpha" maskUnits="userSpaceOnUse" x="13" y="0" width="272" height="272">
<rect x="13" y="38.9373" width="236.034" height="236.034" transform="rotate(-9.49517 13 38.9373)" fill="url(#paint1_linear_438_755)"/>
</mask>
<g mask="url(#mask0_438_755)">
</g>
<rect x="81.7428" y="98.4604" width="122.454" height="77.7909" transform="rotate(-10.1275 81.7428 98.4604)" stroke="#32327B" stroke-width="3"/>
<rect x="38.5354" y="75.9538" width="73.8527" height="73.8527" rx="2.5" transform="rotate(-8.89447 38.5354 75.9538)" fill="#F5F52A" stroke="#32327B" stroke-width="3"/>
<rect x="163.367" y="111.529" width="81.6928" height="70.7369" rx="2.5" transform="rotate(-9.37244 163.367 111.529)" fill="#F5F52A" stroke="#32327B" stroke-width="3"/>
<line x1="42.5424" y1="94.2512" x2="113.336" y2="82.8791" stroke="#32327B" stroke-width="3"/>
<line x1="166.54" y1="131.701" x2="247.177" y2="117.462" stroke="#32327B" stroke-width="3"/>
<path d="M201.725 93.8756C212.441 91.9829 221.905 88.526 228.546 84.4116C231.863 82.3568 234.544 80.0961 236.31 77.7217C238.078 75.3439 239.01 72.7316 238.542 70.0823C238.074 67.433 236.304 65.2979 233.828 63.6698C231.355 62.0439 228.062 60.8383 224.242 60.044C216.593 58.4536 206.518 58.4478 195.802 60.3405C185.085 62.2332 175.621 65.6901 168.98 69.8045C165.663 71.8593 162.982 74.12 161.216 76.4944C159.448 78.8722 158.516 81.4845 158.984 84.1338C159.452 86.7831 161.222 88.9182 163.698 90.5463C166.171 92.1722 169.464 93.3778 173.284 94.1721C180.933 95.7625 191.008 95.7683 201.725 93.8756Z" fill="#0AF50A" stroke="#32327B" stroke-width="3"/>
<path d="M99.7545 191.738C110.491 189.961 119.991 186.606 126.677 182.564C130.015 180.545 132.721 178.313 134.512 175.958C136.306 173.6 137.266 170.998 136.827 168.343C136.387 165.689 134.64 163.535 132.182 161.88C129.727 160.228 126.447 158.987 122.636 158.151C115.005 156.478 104.93 156.364 94.194 158.141C83.4579 159.918 73.9573 163.272 67.2719 167.314C63.9331 169.333 61.2279 171.565 59.4365 173.92C57.6425 176.279 56.6826 178.881 57.1219 181.535C57.5612 184.189 59.3083 186.343 61.7665 187.998C64.2212 189.651 67.5011 190.892 71.3124 191.727C78.9437 193.4 89.0185 193.515 99.7545 191.738Z" fill="#0AF50A" stroke="#32327B" stroke-width="3"/>
<g filter="url(#filter0_d_438_755)">
<path d="M313.5 201H15C8.59224 208.435 3.66171 224.109 1 262.5H313.5V201Z" fill="#EBEBEB" stroke="#D7D7D7"/>
<path d="M48.5 215H64V238.322C64.1453 247.13 57.5406 248.503 55.5 249C53.4594 249.497 44 249 44 249V243.5C54.112 243.982 56 243 56 237V220.5H48.5V215Z" fill="#7FF11A"/>
<path d="M56 237C56 231 56 220.5 56 220.5M56 237C56 243 54.112 243.982 44 243.5V249C44 249 53.4594 249.497 55.5 249C57.5406 248.503 64.1453 247.13 64 238.322V215H48.5V220.5H56M56 237V220.5" stroke="#2F2F2F" stroke-opacity="0.34"/>
<path d="M118 249.5V215H140.5V221H125.5V228H140.5V233H125.5V243.5H140V249.5H118Z" fill="#D0362E" stroke="#2F2F2F" stroke-opacity="0.34"/>
<path d="M246.5 249.5V215H269V221H254V228H269V233H254V243.5H268.5V249.5H246.5Z" fill="#D0362E" stroke="#2F2F2F" stroke-opacity="0.34"/>
<path d="M73.5 249.5V215H81.5L91 232.5L99.5 215H107.5V249.5H101L100.5 226L93 241H88.5L80.5 226V249.5H73.5Z" fill="#054080" stroke="#2F2F2F" stroke-opacity="0.34"/>
<path d="M163 215L164 214.5L166.5 215L170.5 216L173.5 217.5L175.5 219.5L177.5 222.5L178 225.5L177 229L176.5 230L175.5 231.5L173.5 233L172 234.5L170 235L180.5 249.5H172L167 242L165 239L163 236V235V230.5L165 230L166.5 229L167 228C167.333 227.5 168 226.4 168 226V224.5C168 224.1 167.333 223.333 167 223L166 221.5L164 220.5L163 220V215Z" fill="#D0362E"/>
<path d="M150 249.5V215H160V220.5H157.5V230.5H159.5V235.5H157.5V249.5H150Z" fill="#D0362E"/>
<path d="M163 214.5V220.977M163 230V235.5L172 249.5H181L170.5 235.5M150 215V249.5H157.5V235.5H159.5V230.5H157.5V220.5H160V215H150Z" stroke="#2F2F2F" stroke-opacity="0.34"/>
<mask id="path-19-inside-1_438_755" fill="white">
<path d="M163 220C164.459 220 165.858 220.579 166.889 221.611C167.921 222.642 168.5 224.041 168.5 225.5C168.5 226.959 167.921 228.358 166.889 229.389C165.858 230.421 164.459 231 163 231L163 230.023C164.199 230.023 165.35 229.546 166.198 228.698C167.046 227.85 167.523 226.699 167.523 225.5C167.523 224.301 167.046 223.15 166.198 222.302C165.35 221.454 164.199 220.977 163 220.977L163 220Z"/>
</mask>
<path d="M163 220C164.459 220 165.858 220.579 166.889 221.611C167.921 222.642 168.5 224.041 168.5 225.5C168.5 226.959 167.921 228.358 166.889 229.389C165.858 230.421 164.459 231 163 231L163 230.023C164.199 230.023 165.35 229.546 166.198 228.698C167.046 227.85 167.523 226.699 167.523 225.5C167.523 224.301 167.046 223.15 166.198 222.302C165.35 221.454 164.199 220.977 163 220.977L163 220Z" fill="#D0362E" stroke="#2F2F2F" stroke-opacity="0.34" stroke-width="2" mask="url(#path-19-inside-1_438_755)"/>
<mask id="path-20-inside-2_438_755" fill="white">
<path d="M163 214C166.476 214 169.851 214.867 172.583 216.461C175.315 218.056 177.245 220.285 178.064 222.791C178.883 225.298 178.542 227.935 177.097 230.281C175.652 232.626 173.186 234.543 170.096 235.724L169.603 235.013C172.478 233.914 174.772 232.131 176.117 229.948C177.461 227.766 177.778 225.312 177.016 222.98C176.254 220.648 174.458 218.573 171.916 217.09C169.374 215.606 166.234 214.8 163 214.8L163 214Z"/>
</mask>
<path d="M163 214C166.476 214 169.851 214.867 172.583 216.461C175.315 218.056 177.245 220.285 178.064 222.791C178.883 225.298 178.542 227.935 177.097 230.281C175.652 232.626 173.186 234.543 170.096 235.724L169.603 235.013C172.478 233.914 174.772 232.131 176.117 229.948C177.461 227.766 177.778 225.312 177.016 222.98C176.254 220.648 174.458 218.573 171.916 217.09C169.374 215.606 166.234 214.8 163 214.8L163 214Z" fill="#D0362E" stroke="#2F2F2F" stroke-opacity="0.34" stroke-width="2" mask="url(#path-20-inside-2_438_755)"/>
<path d="M203 250H185.5V243.5H190.5V220.5H185.5V215H203V220.5H198V243.5H203V250Z" fill="#D0362E" stroke="#2F2F2F" stroke-opacity="0.34"/>
<path d="M210.554 223.724C210.772 212.57 235.057 211.282 237.554 224.724L233.054 224.224C226.576 217.79 219.1 220.132 218.054 223.724C217.008 227.317 220.554 228.069 227.054 230.026L227.057 230.027C233.407 231.939 239.287 233.709 238.554 241.223C237.951 252.904 213.619 254.262 211.554 240.224L216.054 240.724C221.087 248.543 230.26 244.893 231.054 241.223C231.841 237.585 229.036 236.671 223.204 234.773L223.054 234.724C216.697 232.809 209.82 231.248 210.554 223.724Z" fill="#D0362E"/>
<path d="M227.054 230.026C220.554 228.069 217.008 227.317 218.054 223.724C219.1 220.132 226.576 217.79 233.054 224.224L237.554 224.724C235.057 211.282 210.772 212.57 210.554 223.724C209.82 231.248 216.697 232.809 223.054 234.724C228.988 236.656 231.848 237.553 231.054 241.223C230.26 244.893 221.087 248.543 216.054 240.724L211.554 240.224C213.619 254.262 237.951 252.904 238.554 241.223C239.287 233.708 233.405 231.938 227.054 230.026ZM227.054 230.026L226.054 229.724" stroke="#2F2F2F" stroke-opacity="0.34"/>
</g>
<line x1="153.723" y1="85.5259" x2="238.723" y2="69.5259" stroke="#32327B" stroke-width="3"/>
<line x1="57.7414" y1="181.522" x2="137.741" y2="167.522" stroke="#32327B" stroke-width="3"/>
<defs>
<filter id="filter0_d_438_755" x="0.464111" y="200.5" width="315.536" height="66.5" filterUnits="userSpaceOnUse" color-interpolation-filters="sRGB">
<feFlood flood-opacity="0" result="BackgroundImageFix"/>
<feColorMatrix in="SourceAlpha" type="matrix" values="0 0 0 0 0 0 0 0 0 0 0 0 0 0 0 0 0 0 127 0" result="hardAlpha"/>
<feOffset dx="1" dy="3"/>
<feGaussianBlur stdDeviation="0.5"/>
<feComposite in2="hardAlpha" operator="out"/>
<feColorMatrix type="matrix" values="0 0 0 0 0.8125 0 0 0 0 0.8125 0 0 0 0 0.8125 0 0 0 1 0"/>
<feBlend mode="normal" in2="BackgroundImageFix" result="effect1_dropShadow_438_755"/>
<feBlend mode="normal" in="SourceGraphic" in2="effect1_dropShadow_438_755" result="shape"/>
</filter>
<linearGradient id="paint0_linear_438_755" x1="13" y1="41" x2="299" y2="136" gradientUnits="userSpaceOnUse">
<stop stop-color="#838383"/>
<stop offset="0.425582" stop-color="#BDBDBD"/>
<stop offset="0.567708" stop-color="#D2D2D2"/>
<stop offset="0.692708" stop-color="#C4C4C4"/>
<stop offset="1" stop-color="#838383"/>
</linearGradient>
<linearGradient id="paint1_linear_438_755" x1="12.6597" y1="40.9717" x2="279.07" y2="181.85" gradientUnits="userSpaceOnUse">
<stop stop-color="#838383"/>
<stop offset="0.425582" stop-color="#BDBDBD"/>
<stop offset="0.567708" stop-color="#D2D2D2"/>
<stop offset="0.692708" stop-color="#C4C4C4"/>
<stop offset="1" stop-color="#838383"/>
</linearGradient>
</defs>
</svg>
